<svg version="1.1" viewBox="0.0 0.0 288.0 288.0" fill="none" stroke="none" stroke-linecap="square" stroke-miterlimit="10" xmlns:xlink="http://www.w3.org/1999/xlink" xmlns="http://www.w3.org/2000/svg"><clipPath id="p.0"><path d="m0 0l288.0 0l0 288.0l-288.0 0l0 -288.0z" clip-rule="nonzero"/></clipPath><g clip-path="url(#p.0)"><path fill="#000000" fill-opacity="0.0" d="m0 0l288.0 0l0 288.0l-288.0 0z" fill-rule="evenodd"/><path fill="#041e42" d="m0 48.01146c0 -26.510199 21.490763 -48.00096 48.00096 -48.00096l191.99808 0c12.730652 0 24.939865 5.0572295 33.94182 14.059155c9.001923 9.001926 14.059143 21.211157 14.059143 33.941803l0 191.99808c0 26.510208 -21.490753 48.00096 -48.00096 48.00096l-191.99808 0c-26.510199 0 -48.00096 -21.490753 -48.00096 -48.00096z" fill-rule="evenodd"/><path fill="#000000" fill-opacity="0.0" d="m18.11041 15.038745l251.77951 0l0 257.92123l-251.77951 0z" fill-rule="evenodd"/><path fill="#ffffff" d="m59.59552 216.71873l-34.125 -107.859375l27.718752 0l20.21875 70.6875l18.578125 -70.6875l27.53125 0l17.96875 70.6875l20.625 -70.6875l28.125 0l-34.625 107.859375l-27.421875 0l-18.59375 -69.375l-18.28125 69.375l-27.71875 0z" fill-rule="nonzero"/><path fill="#ffffff" d="m256.13458 126.999985l0 11.71875l-65.59375 0q-0.140625 -4.40625 1.421875 -8.46875q2.5 -6.703125 8.015625 -13.203125q5.515625 -6.5 15.953125 -15.015625q16.171875 -13.28125 21.859375 -21.03125q5.6875 -7.75 5.6875 -14.65625q0 -7.249996 -5.1875 -12.218746q-5.171875 -4.984375 -13.5 -4.984375q-8.796875 0 -14.078125 5.28125q-5.28125 5.28125 -5.34375 14.624996l-12.53125 -1.28125q1.28125 -14.015621 9.671875 -21.359371q8.40625 -7.34375 22.546875 -7.34375q14.296875 0 22.625 7.921875q8.328125 7.921875 8.328125 19.624996q0 5.96875 -2.4375 11.71875q-2.4375 5.75 -8.09375 12.125q-5.65625 6.359375 -18.796875 17.453125q-10.953125 9.21875 -14.078125 12.5q-3.109375 3.28125 -5.140625 6.59375l48.671875 0z" fill-rule="nonzero"/></g></svg>